<?xml version="1.0" encoding="utf-8"?>
<!-- Generator: Adobe Illustrator 27.0.0, SVG Export Plug-In . SVG Version: 6.00 Build 0)  -->
<svg version="1.1" id="Logo" xmlns="http://www.w3.org/2000/svg" xmlns:xlink="http://www.w3.org/1999/xlink" x="0px" y="0px"
	 viewBox="0 0 1224.36 141.74" style="enable-background:new 0 0 1224.36 141.74;" xml:space="preserve">
<style type="text/css">
	.st0{fill:#003781;}
	.st1{fill:#0075C9;}
</style>
<g>
	<path class="st0" d="M699.3,72.26h-19.98l10.64-34.72L699.3,72.26z M734.03,110.55l-24.79-87.03c-1.42-5.14-4.54-7.52-9.94-7.52
		h-35.3v8.22h2.97c3.68,0,5.68,1.44,5.68,4.26c0,1.85-0.41,3.4-1.88,7.64l-24.81,74.43h22.99l6.81-22.81h26.93l6.38,22.81H734.03z
		 M740.53,110.55h22.24V23.24c0-4.55-2.67-7.24-7.08-7.24h-21.82v8.22h1.42c3.68,0,5.23,1.56,5.23,5.28V110.55z M778.35,110.55
		h22.26V23.24c0-4.55-2.7-7.24-7.09-7.24H771.7v8.22h1.39c3.7,0,5.26,1.56,5.26,5.28V110.55z M831.9,39.69h-21.53v8.06h1.27
		c3.68,0,5.24,1.69,5.24,5.38v57.42H839V46.9C839,42.37,836.29,39.69,831.9,39.69 M839.41,24.63c0-6.34-4.69-10.18-12.75-10.18
		c-7.93,0-12.78,3.84-12.78,10.18c0,6.41,4.85,10.21,12.78,10.21C834.72,34.84,839.41,31.04,839.41,24.63 M887.72,90.29
		c-3.7,3.83-8.22,6.12-12.04,6.12c-3.99,0-5.39-1.96-5.39-7.27c0-5.25,1.11-7.63,5.09-9.18c2.97-1.29,6.8-2.42,12.34-3.45V90.29z
		 M895.1,110.55h20.27v-7.63h-1c-3.82,0-5.23-1.72-5.23-6.23V62.93c0-17.99-6.24-24.26-24.26-24.26c-5.8,0-11.47,0.74-16.98,2.01
		c-5.56,1.26-8.4,2.4-15.03,5.67l4.93,13.62c7.38-3.55,15.47-5.54,21.83-5.54c5.97,0,8.1,2.13,8.1,8.33v1.58
		c-9.07,1.43-11.9,2.01-17.02,3.14c-2.95,0.7-5.69,1.54-8.37,2.68c-8.94,3.59-13.16,10.49-13.16,21.11
		c0,13.47,5.8,19.97,17.85,19.97c4.39,0,8.37-0.84,11.92-2.24c3.11-1.38,4.95-2.54,9.5-6.09v0.99
		C888.44,108.29,890.69,110.55,895.1,110.55 M965.37,110.55h22.11V62.37c0-11.22-0.82-14.76-4.37-18.56
		c-2.98-3.28-7.52-4.96-13.35-4.96c-8.65,0-14.74,2.68-22.93,10.34v-2.83c0-4.41-2.3-6.66-6.83-6.66h-21v8.06h1.28
		c3.68,0,5.26,1.69,5.26,5.38v57.41h22.1V62.64c3.7-4.12,7.51-5.97,11.91-5.97c4.7,0,5.81,1.85,5.81,8.98V110.55z M997.39,110.55
		h55.7V95.67h-30.9l29.49-41.37V39.68h-46.2c-5.25,0-7.66,2.4-7.66,7.66v12.88h8.22v-1.26c0-3.26,1.7-4.82,5.22-4.82h15.9
		l-29.77,41.82V110.55z"/>
	<path class="st1" d="M221.51,97.92c2.34-3.55,3.5-7.87,3.5-12.97c0-4.21-0.81-7.76-2.42-10.64c-1.61-2.88-3.73-5.27-6.34-7.15
		c-2.61-1.88-5.59-3.38-8.92-4.49c-3.34-1.11-6.73-2.05-10.18-2.83c-3.56-0.78-7-1.5-10.34-2.16c-3.33-0.66-6.31-1.47-8.92-2.41
		c-2.62-0.94-4.73-2.13-6.34-3.58c-1.61-1.44-2.42-3.33-2.42-5.65c0-1.89,0.55-3.41,1.66-4.57c1.11-1.17,2.47-2.05,4.08-2.66
		c1.61-0.61,3.33-1.03,5.16-1.25c1.83-0.22,3.41-0.33,4.74-0.33c4.21,0,7.95,0.78,11.23,2.33c3.27,1.55,5.35,4.6,6.23,9.15h19.79
		c-0.56-4.77-1.91-8.84-4.07-12.22c-2.16-3.38-4.88-6.13-8.15-8.23c-3.27-2.11-6.93-3.63-10.98-4.57
		c-4.05-0.94-8.29-1.41-12.72-1.41c-3.88,0-7.96,0.39-12.22,1.16c-4.27,0.78-8.15,2.14-11.64,4.07c-3.49,1.94-6.38,4.49-8.65,7.65
		c-2.27,3.16-3.41,7.07-3.41,11.72c0,4.33,0.78,7.96,2.33,10.9c1.55,2.94,3.63,5.35,6.24,7.23c2.6,1.89,5.54,3.38,8.81,4.49
		c3.27,1.11,6.68,2.05,10.23,2.83c3.44,0.78,6.82,1.49,10.15,2.16c3.33,0.66,6.29,1.47,8.9,2.41c2.61,0.95,4.74,2.19,6.4,3.74
		c1.66,1.55,2.55,3.55,2.66,5.99c0.11,2.44-0.47,4.41-1.75,5.9c-1.28,1.5-2.91,2.64-4.91,3.41c-1.99,0.78-4.13,1.31-6.4,1.58
		c-2.27,0.28-4.3,0.42-6.07,0.42c-5.1,0-9.48-1.11-13.14-3.33c-3.66-2.22-5.77-6.1-6.32-11.64h-18.96c0.11,5.1,1.14,9.51,3.08,13.22
		c1.94,3.72,4.61,6.82,8,9.31c3.39,2.49,7.39,4.35,12,5.57c4.61,1.22,9.64,1.83,15.09,1.83c4.44,0,8.94-0.5,13.5-1.5
		c4.56-1,8.7-2.6,12.41-4.82C216.15,104.35,219.18,101.47,221.51,97.92 M276.22,83.14c0,1.1-0.12,2.56-0.34,4.39
		c-0.23,1.83-0.85,3.63-1.85,5.41c-1.01,1.78-2.56,3.31-4.66,4.59c-2.1,1.28-5.07,1.92-8.91,1.92c-1.55,0-3.06-0.14-4.52-0.41
		c-1.46-0.27-2.74-0.76-3.84-1.44c-1.1-0.68-1.96-1.62-2.6-2.81c-0.64-1.19-0.96-2.65-0.96-4.39c0-1.83,0.32-3.33,0.96-4.52
		c0.64-1.19,1.48-2.17,2.54-2.95c1.05-0.78,2.28-1.39,3.7-1.85c1.41-0.46,2.85-0.82,4.32-1.1c1.55-0.27,3.11-0.5,4.66-0.69
		c1.55-0.18,3.04-0.41,4.45-0.68c1.41-0.27,2.74-0.62,3.98-1.03c1.23-0.41,2.26-0.98,3.08-1.71V83.14z M278.41,110.56h19.74
		c-0.92-1.46-1.56-3.65-1.92-6.58c-0.37-2.92-0.55-5.98-0.55-9.19V57.92c0-4.29-0.96-7.74-2.88-10.35c-1.92-2.61-4.39-4.63-7.4-6.1
		c-3.01-1.46-6.35-2.44-10-2.95c-3.66-0.5-7.27-0.75-10.83-0.75c-3.93,0-7.84,0.39-11.72,1.16c-3.89,0.78-7.38,2.08-10.49,3.91
		c-3.11,1.83-5.67,4.25-7.68,7.27c-2.01,3.02-3.15,6.81-3.43,11.38h19.46c0.36-3.84,1.64-6.58,3.84-8.23
		c2.19-1.64,5.21-2.47,9.05-2.47c1.73,0,3.36,0.12,4.86,0.34c1.51,0.23,2.83,0.69,3.98,1.37c1.14,0.69,2.06,1.65,2.74,2.88
		c0.69,1.23,1.03,2.9,1.03,5c0.09,2.01-0.5,3.55-1.78,4.59c-1.28,1.05-3.01,1.85-5.21,2.4c-2.19,0.55-4.71,0.96-7.54,1.23
		c-2.83,0.27-5.71,0.64-8.63,1.1c-2.93,0.45-5.83,1.08-8.7,1.85c-2.88,0.78-5.44,1.94-7.68,3.5c-2.24,1.55-4.07,3.63-5.48,6.23
		c-1.42,2.6-2.12,5.92-2.12,9.94c0,3.66,0.62,6.81,1.85,9.46c1.23,2.65,2.95,4.85,5.14,6.58c2.2,1.74,4.75,3.02,7.68,3.84
		c2.93,0.82,6.08,1.24,9.46,1.24c4.39,0,8.68-0.64,12.88-1.92c4.2-1.28,7.86-3.51,10.97-6.72c0.09,1.19,0.25,2.35,0.48,3.5
		C277.75,108.34,278.04,109.46,278.41,110.56 M350.41,110.56h19.46V66.97c0-4.39-0.39-8.38-1.17-11.99
		c-0.78-3.61-2.13-6.67-4.04-9.18c-1.92-2.51-4.55-4.48-7.88-5.89c-3.34-1.42-7.61-2.12-12.82-2.12c-4.11,0-8.13,0.94-12.06,2.81
		c-3.93,1.87-7.13,4.87-9.59,8.98h-0.41v-9.87h-18.5v70.86h19.46V73.41c0-7.22,1.19-12.41,3.56-15.56
		c2.38-3.15,6.21-4.73,11.51-4.73c4.66,0,7.91,1.44,9.74,4.32c1.82,2.88,2.74,7.25,2.74,13.09V110.56z M377.32,110.56h19.46V12.69
		h-19.46V110.56z M449.63,83.14c0,1.1-0.12,2.56-0.34,4.39c-0.23,1.83-0.85,3.63-1.85,5.41c-1.01,1.78-2.56,3.31-4.66,4.59
		c-2.1,1.28-5.07,1.92-8.91,1.92c-1.55,0-3.06-0.14-4.53-0.41c-1.46-0.27-2.74-0.76-3.84-1.44c-1.1-0.68-1.97-1.62-2.6-2.81
		c-0.64-1.19-0.96-2.65-0.96-4.39c0-1.83,0.32-3.33,0.96-4.52c0.64-1.19,1.48-2.17,2.54-2.95c1.05-0.78,2.28-1.39,3.7-1.85
		c1.42-0.46,2.85-0.82,4.32-1.1c1.55-0.27,3.11-0.5,4.66-0.69c1.55-0.18,3.04-0.41,4.45-0.68c1.42-0.27,2.74-0.62,3.98-1.03
		c1.23-0.41,2.26-0.98,3.09-1.71V83.14z M451.82,110.56h19.74c-0.91-1.46-1.55-3.65-1.92-6.58c-0.37-2.92-0.55-5.98-0.55-9.19V57.92
		c0-4.29-0.96-7.74-2.88-10.35c-1.92-2.61-4.39-4.63-7.4-6.1c-3.02-1.46-6.35-2.44-10.01-2.95c-3.66-0.5-7.27-0.75-10.83-0.75
		c-3.93,0-7.84,0.39-11.72,1.16c-3.89,0.78-7.38,2.08-10.49,3.91c-3.11,1.83-5.67,4.25-7.68,7.27c-2.01,3.02-3.15,6.81-3.43,11.38
		h19.46c0.36-3.84,1.65-6.58,3.84-8.23c2.19-1.64,5.21-2.47,9.05-2.47c1.73,0,3.36,0.12,4.87,0.34c1.51,0.23,2.83,0.69,3.98,1.37
		c1.14,0.69,2.06,1.65,2.74,2.88c0.68,1.23,1.03,2.9,1.03,5c0.09,2.01-0.5,3.55-1.78,4.59c-1.28,1.05-3.02,1.85-5.21,2.4
		c-2.2,0.55-4.71,0.96-7.54,1.23c-2.83,0.27-5.71,0.64-8.63,1.1c-2.93,0.45-5.83,1.08-8.71,1.85c-2.88,0.78-5.44,1.94-7.67,3.5
		c-2.24,1.55-4.07,3.63-5.48,6.23c-1.42,2.6-2.13,5.92-2.13,9.94c0,3.66,0.62,6.81,1.85,9.46c1.23,2.65,2.95,4.85,5.14,6.58
		c2.19,1.74,4.75,3.02,7.68,3.84c2.92,0.82,6.07,1.24,9.46,1.24c4.39,0,8.68-0.64,12.88-1.92c4.2-1.28,7.86-3.51,10.97-6.72
		c0.09,1.19,0.25,2.35,0.48,3.5C451.16,108.34,451.46,109.46,451.82,110.56 M584.82,110.56V63.13c0-4.57-0.64-8.47-1.92-11.72
		c-1.28-3.24-3.06-5.87-5.34-7.88c-2.28-2.01-5.03-3.47-8.22-4.39c-3.2-0.91-6.67-1.37-10.42-1.37c-4.94,0-9.21,1.19-12.82,3.56
		c-3.61,2.38-6.47,5.12-8.57,8.22c-1.92-4.39-4.73-7.45-8.43-9.18c-3.7-1.74-7.79-2.6-12.27-2.6c-4.66,0-8.79,1-12.4,3.01
		c-3.61,2.01-6.69,4.84-9.25,8.5h-0.27v-9.59h-18.37v70.86h19.46V69.44c0-3.47,0.5-6.28,1.51-8.43c1-2.14,2.21-3.79,3.63-4.93
		c1.42-1.14,2.88-1.92,4.39-2.33c1.51-0.41,2.72-0.62,3.63-0.62c3.11,0,5.46,0.53,7.06,1.57c1.6,1.05,2.74,2.45,3.43,4.18
		c0.69,1.74,1.07,3.63,1.17,5.69c0.09,2.06,0.14,4.13,0.14,6.24v39.75h19.46V71.08c0-2.2,0.16-4.37,0.48-6.51
		c0.32-2.15,0.96-4.06,1.92-5.75c0.96-1.69,2.28-3.07,3.98-4.12c1.69-1.05,3.91-1.57,6.65-1.57c2.74,0,4.91,0.46,6.51,1.37
		c1.6,0.91,2.81,2.15,3.63,3.7c0.82,1.56,1.33,3.38,1.51,5.48c0.18,2.1,0.27,4.34,0.27,6.71v40.16H584.82z"/>
	<rect x="617.3" class="st0" width="5.91" height="141.73"/>
	<path class="st0" d="M1224.36,70.88c0-40.53-30.31-70.88-70.86-70.88c-40.56,0-70.87,30.35-70.87,70.88
		c0,40.58,30.31,70.86,70.87,70.86C1194.04,141.74,1224.36,111.45,1224.36,70.88 M1213.01,70.87c0,34.46-25.07,59.52-59.52,59.52
		c-34.45,0-59.52-25.06-59.52-59.52c0-34.47,25.07-59.53,59.52-59.53C1187.94,11.34,1213.01,36.55,1213.01,70.87 M1113.9,110.56
		h20.37V39.69h-12.06c-5.97,0-8.31,2.19-8.31,8.31V110.56z M1143.26,110.56h20.49V32.21c0-6.23-2.21-8.33-8.27-8.33h-18.3v8.73h1.09
		c4.18,0,4.99,0.94,4.99,5.97V110.56z M1172.75,110.56h20.33V48c0-6.11-2.36-8.31-8.32-8.31h-12.01V110.56z"/>
	<g>
		<path class="st1" d="M46.24,21.18C49.5,15.21,54.39,8.15,48.41,0c0,0-1.62,2.71-47.26,64.09l-0.15,0.18
			C0.37,65.21,0,66.34,0,67.74v0.11c0,1.71,0.47,3.19,1.3,4.42l-0.02,0.01l17.19,27.91c1.58,2.99,2.08,8.56,2.15,13.03
			c0.03,2,0.02,6.63,0.02,9.36h0c0.01,4.89,4.16,7.75,9.47,7.81h21.1v-23.78c0.05-1.63,0.07-9.53-0.49-11.3
			c-0.62-2.78-1.83-4.52-3.99-6.53c-5.38-4.96-10.33-8.15-14.14-14.12c-3.26-4.34-5.43-10.33-5.43-15.76
			c0-5.43,1.63-9.77,4.35-13.57c3.54-5.66,7.25-11.32,10.32-16.31l-0.01-0.02C43.27,26.59,44.73,24.04,46.24,21.18"/>
		<path class="st1" d="M54.55,36.99c-12.08,0-21.86,9.68-21.86,21.61c0,11.93,9.78,21.61,21.86,21.61
			c12.07,0,21.85-9.68,21.85-21.61C76.4,46.67,66.61,36.99,54.55,36.99"/>
		<path class="st1" d="M107.78,72.26c0.83-1.22,1.31-2.7,1.31-4.42v-0.11c0-1.39-0.37-2.52-0.99-3.47l-0.15-0.18
			C62.3,2.71,60.68,0,60.68,0c-5.98,8.14-1.09,15.21,2.17,21.18c1.52,2.86,2.97,5.41,4.44,7.82l-0.01,0.02
			c3.06,5,6.78,10.65,10.31,16.31c2.71,3.79,4.35,8.14,4.35,13.57c0,5.43-2.18,11.41-5.44,15.76c-3.81,5.97-8.76,9.16-14.13,14.12
			c-2.17,2.01-3.37,3.75-3.99,6.53c-0.57,1.77-0.54,9.67-0.49,11.3v23.78h21.1c5.3-0.05,9.46-2.92,9.46-7.81h0.01
			c-0.01-2.73-0.01-7.36,0.02-9.36c0.06-4.47,0.56-10.04,2.15-13.03l17.19-27.91L107.78,72.26z"/>
	</g>
</g>
</svg>
